<svg width="0" height="0" class="hidden">
    <!-- Azure logo -->
    <symbol xmlns="http://www.w3.org/2000/svg" viewBox="0 0 96 96" id="azure">
        <defs>
            <linearGradient id="azure__a" x1="-1032.17" x2="-1059.21" y1="145.31" y2="65.43" gradientTransform="matrix(1 0 0 -1 1075 158)" gradientUnits="userSpaceOnUse">
                <stop offset="0" stop-color="#114a8b"></stop>
                <stop offset="1" stop-color="#0669bc"></stop>
            </linearGradient>
            <linearGradient id="azure__b" x1="-1023.73" x2="-1029.98" y1="108.08" y2="105.97" gradientTransform="matrix(1 0 0 -1 1075 158)" gradientUnits="userSpaceOnUse">
                <stop offset="0" stop-opacity=".3"></stop>
                <stop offset=".07" stop-opacity=".2"></stop>
                <stop offset=".32" stop-opacity=".1"></stop>
                <stop offset=".62" stop-opacity=".05"></stop>
                <stop offset="1" stop-opacity="0"></stop>
            </linearGradient>
            <linearGradient id="azure__c" x1="-1027.16" x2="-997.48" y1="147.64" y2="68.56" gradientTransform="matrix(1 0 0 -1 1075 158)" gradientUnits="userSpaceOnUse">
                <stop offset="0" stop-color="#3ccbf4"></stop>
                <stop offset="1" stop-color="#2892df"></stop>
            </linearGradient>
        </defs>
        <path fill="url(#azure__a)" d="M33.34 6.54h26.04l-27.03 80.1a4.15 4.15 0 0 1-3.94 2.81H8.15a4.14 4.14 0 0 1-3.93-5.47L29.4 9.38a4.15 4.15 0 0 1 3.94-2.83z"></path>
        <path fill="#0078d4" d="M71.17 60.26H29.88a1.91 1.91 0 0 0-1.3 3.31l26.53 24.76a4.17 4.17 0 0 0 2.85 1.13h23.38z"></path>
        <path fill="url(#azure__b)" d="M33.34 6.54a4.12 4.12 0 0 0-3.95 2.88L4.25 83.92a4.14 4.14 0 0 0 3.91 5.54h20.79a4.44 4.44 0 0 0 3.4-2.9l5.02-14.78 17.91 16.7a4.24 4.24 0 0 0 2.67.97h23.29L71.02 60.26H41.24L59.47 6.55z"></path>
        <path fill="url(#azure__c)" d="M66.6 9.36a4.14 4.14 0 0 0-3.93-2.82H33.65a4.15 4.15 0 0 1 3.93 2.82l25.18 74.62a4.15 4.15 0 0 1-3.93 5.48h29.02a4.15 4.15 0 0 0 3.93-5.48z"></path>
    </symbol>

    <!-- html5 -->
    <symbol xmlns="http://www.w3.org/2000/svg" viewBox="0 0 452 520" id="html5">
        <path fill="#e34f26" d="M41 460L0 0h451l-41 460-185 52"></path>
        <path fill="#ef652a" d="M226 472l149-41 35-394H226"></path>
        <path fill="#ecedee" d="M226 208h-75l-5-58h80V94H84l15 171h127zm0 147l-64-17-4-45h-56l7 89 117 32z"></path>
        <path fill="#fff" d="M226 265h69l-7 73-62 17v59l115-32 16-174H226zm0-171v56h136l5-56z"></path>
    </symbol>

    <!-- Clodudflare logo -->
    <symbol xmlns="http://www.w3.org/2000/svg" preserveAspectRatio="xMidYMid" viewBox="0 0 256 116"
        id="cloudflare">
        <path fill="#FFF"
            d="m202.357 49.394-5.311-2.124C172.085 103.434 72.786 69.289 66.81 85.997c-.996 11.286 54.227 2.146 93.706 4.059 12.039.583 18.076 9.671 12.964 24.484l10.069.031c11.615-36.209 48.683-17.73 50.232-29.68-2.545-7.857-42.601 0-31.425-35.497Z"></path>
        <path fill="#F4811F"
            d="M176.332 108.348c1.593-5.31 1.062-10.622-1.593-13.809-2.656-3.187-6.374-5.31-11.154-5.842L71.17 87.634c-.531 0-1.062-.53-1.593-.53-.531-.532-.531-1.063 0-1.594.531-1.062 1.062-1.594 2.124-1.594l92.946-1.062c11.154-.53 22.839-9.56 27.087-20.182l5.312-13.809c0-.532.531-1.063 0-1.594C191.203 20.182 166.772 0 138.091 0 111.535 0 88.697 16.995 80.73 40.896c-5.311-3.718-11.684-5.843-19.12-5.31-12.747 1.061-22.838 11.683-24.432 24.43-.531 3.187 0 6.374.532 9.56C16.996 70.107 0 87.103 0 108.348c0 2.124 0 3.718.531 5.842 0 1.063 1.062 1.594 1.594 1.594h170.489c1.062 0 2.125-.53 2.125-1.594l1.593-5.842Z"></path>
        <path fill="#FAAD3F"
            d="M205.544 48.863h-2.656c-.531 0-1.062.53-1.593 1.062l-3.718 12.747c-1.593 5.31-1.062 10.623 1.594 13.809 2.655 3.187 6.373 5.31 11.153 5.843l19.652 1.062c.53 0 1.062.53 1.593.53.53.532.53 1.063 0 1.594-.531 1.063-1.062 1.594-2.125 1.594l-20.182 1.062c-11.154.53-22.838 9.56-27.087 20.182l-1.063 4.78c-.531.532 0 1.594 1.063 1.594h70.108c1.062 0 1.593-.531 1.593-1.593 1.062-4.25 2.124-9.03 2.124-13.81 0-27.618-22.838-50.456-50.456-50.456"></path>
    </symbol>

    <!-- CSS logo -->
    <symbol xmlns="http://www.w3.org/2000/svg" viewBox="0 0 1000 1000" id="css">
        <path fill="#639"
            d="M0 0h840a160 160 0 0 1 160 160v680a160 160 0 0 1-160 160H160A160 160 0 0 1 0 840V0Z"></path>
        <path fill="#fff"
            d="M816.54 919.9c-32.39 0-57.16-9.42-74.5-28.35-17.15-19.03-26.08-46.18-26.88-81.64h69.8c.4 31.36 11.42 47.08 33.08 47.08 11.04 0 18.86-3.5 23.37-10.42 4.41-6.9 6.72-17.93 6.72-33.05 0-12.02-3.01-22.04-8.83-29.95a73.2 73.2 0 0 0-29.48-21.14L783.95 750c-23.06-11.02-39.81-24.04-50.14-39.27-10.03-15.13-15.04-36.36-15.04-63.5 0-30.36 8.83-55 26.37-73.94 18.05-18.93 42.62-28.34 74-28.34 30.3 0 53.76 9.31 70.3 27.84 16.85 18.64 25.67 45.28 26.38 80.14h-67.19c.4-11.4-1.9-22.72-6.72-33.06-3.8-7.6-11.23-11.41-22.26-11.41-19.65 0-29.48 11.71-29.48 35.05 0 11.83 2.4 21.04 7.22 28.05A65.18 65.18 0 0 0 822.76 689l24.77 10.92c25.57 11.72 44.02 26.05 55.35 43.38 11.43 17.23 17.05 40.27 17.05 69.12 0 34.56-9.03 61.1-27.38 79.63-18.25 18.53-43.62 27.85-76 27.85Zm-225.42 0c-32.4 0-57.16-9.42-74.51-28.35-17.15-19.03-26.07-46.18-26.87-81.64h69.79c.4 31.36 11.43 47.08 33.1 47.08 11.02 0 18.84-3.5 23.25-10.42 4.52-6.9 6.72-17.93 6.72-33.05 0-12.02-2.9-22.04-8.72-29.95a73.2 73.2 0 0 0-29.48-21.14L558.53 750c-23.07-11.02-39.81-24.04-50.14-39.27-10.03-15.13-15.04-36.36-15.04-63.5 0-30.36 8.82-55 26.37-73.94 18.05-18.93 42.62-28.34 74-28.34 30.29 0 53.75 9.31 70.2 27.84 17.05 18.64 25.77 45.28 26.47 80.14h-67.18c.4-11.4-1.9-22.72-6.72-33.06-3.81-7.6-11.23-11.41-22.26-11.41-19.66 0-29.49 11.71-29.49 35.05 0 11.83 2.41 21.04 7.22 28.05A65.18 65.18 0 0 0 597.33 689l24.77 10.92c25.57 11.72 44.02 26.05 55.36 43.38 11.33 17.23 17.04 40.27 17.04 69.12 0 34.56-9.12 61.1-27.37 79.63-18.25 18.53-43.62 27.85-76.01 27.85Zm-234.75 0c-31.7 0-56.86-8.62-75.51-25.85-18.65-17.12-27.88-42.87-27.88-76.93V648.83c0-33.85 9.83-59.5 29.48-77.13 19.96-17.43 46.13-26.24 78.52-26.24 31.39 0 56.15 9.01 74.5 26.84 18.56 17.93 27.88 44.58 27.88 80.14v13.32h-73.9v-12.92c0-13.72-3.01-23.84-8.83-30.45a26.46 26.46 0 0 0-21.66-10.32c-12.03 0-20.55 4.1-25.37 12.42a79.04 79.04 0 0 0-6.72 36.66v146.26c0 30.55 10.74 46.08 32.1 46.38 10.02 0 17.54-3.61 22.76-10.82a51.74 51.74 0 0 0 7.72-30.46V801.6h73.9v11.42c0 23.74-4.61 43.57-13.94 59.4a88.8 88.8 0 0 1-38.2 35.66 121.46 121.46 0 0 1-54.85 11.82Z"></path>
    </symbol>

    <!-- Old CSS logo -->
    <symbol xmlns="http://www.w3.org/2000/svg" viewBox="0 0 512 512" id="css_old">
        <path fill="#264de4" d="M71.357 460.819 30.272 0h451.456l-41.129 460.746L255.724 512z"></path>
        <path fill="#2965f1" d="m405.388 431.408 35.148-393.73H256v435.146z"></path>
        <path fill="#ebebeb"
            d="m124.46 208.59 5.065 56.517H256V208.59zm-5.041-57.875H256V94.197H114.281zM256 355.372l-.248.066-62.944-16.996-4.023-45.076h-56.736l7.919 88.741 115.772 32.14.26-.073z"></path>
        <path fill="#fff"
            d="M255.805 208.59v56.517H325.4l-6.56 73.299-63.035 17.013v58.8l115.864-32.112.85-9.549 13.28-148.792 1.38-15.176 10.203-114.393H255.805v56.518h79.639L330.3 208.59z"></path>
    </symbol>

    <!-- Figma logo -->
    <symbol fill="none" xmlns="http://www.w3.org/2000/svg" viewBox="0 0 54 80" id="figma">
        <g clip-path="url(#figma__clip0_912_3)">
            <path
                d="M13.3333 80.0002C20.6933 80.0002 26.6667 74.0268 26.6667 66.6668V53.3335H13.3333C5.97333 53.3335 0 59.3068 0 66.6668C0 74.0268 5.97333 80.0002 13.3333 80.0002Z"
                fill="#0ACF83"></path>
            <path
                d="M0 39.9998C0 32.6398 5.97333 26.6665 13.3333 26.6665H26.6667V53.3332H13.3333C5.97333 53.3332 0 47.3598 0 39.9998Z"
                fill="#A259FF"></path>
            <path
                d="M0 13.3333C0 5.97333 5.97333 0 13.3333 0H26.6667V26.6667H13.3333C5.97333 26.6667 0 20.6933 0 13.3333Z"
                fill="#F24E1E"></path>
            <path
                d="M26.6667 0H40.0001C47.3601 0 53.3334 5.97333 53.3334 13.3333C53.3334 20.6933 47.3601 26.6667 40.0001 26.6667H26.6667V0Z"
                fill="#FF7262"></path>
            <path
                d="M53.3334 39.9998C53.3334 47.3598 47.3601 53.3332 40.0001 53.3332C32.6401 53.3332 26.6667 47.3598 26.6667 39.9998C26.6667 32.6398 32.6401 26.6665 40.0001 26.6665C47.3601 26.6665 53.3334 32.6398 53.3334 39.9998Z"
                fill="#1ABCFE"></path>
        </g>
        <defs>
            <clipPath id="figma__clip0_912_3">
                <rect width="53.3333" height="80" fill="white"></rect>
            </clipPath>
        </defs>
    </symbol>

    <!-- Git logo -->
    <symbol xmlns="http://www.w3.org/2000/svg" preserveAspectRatio="xMidYMid" viewBox="0 0 256 256"
        id="git">
        <path
            d="M251.17 116.6 139.4 4.82a16.49 16.49 0 0 0-23.31 0l-23.21 23.2 29.44 29.45a19.57 19.57 0 0 1 24.8 24.96l28.37 28.38a19.61 19.61 0 1 1-11.75 11.06L137.28 95.4v69.64a19.62 19.62 0 1 1-16.13-.57V94.2a19.61 19.61 0 0 1-10.65-25.73L81.46 39.44 4.83 116.08a16.49 16.49 0 0 0 0 23.32L116.6 251.17a16.49 16.49 0 0 0 23.32 0l111.25-111.25a16.5 16.5 0 0 0 0-23.33"
            fill="#DE4C36"></path>
    </symbol>

    <!-- GitHub logo -->
    <symbol fill="none" xmlns="http://www.w3.org/2000/svg" viewBox="0 0 1024 1024" id="github">
        <path fill-rule="evenodd" clip-rule="evenodd"
            d="M8 0C3.58 0 0 3.58 0 8C0 11.54 2.29 14.53 5.47 15.59C5.87 15.66 6.02 15.42 6.02 15.21C6.02 15.02 6.01 14.39 6.01 13.72C4 14.09 3.48 13.23 3.32 12.78C3.23 12.55 2.84 11.84 2.5 11.65C2.22 11.5 1.82 11.13 2.49 11.12C3.12 11.11 3.57 11.7 3.72 11.94C4.44 13.15 5.59 12.81 6.05 12.6C6.12 12.08 6.33 11.73 6.56 11.53C4.78 11.33 2.92 10.64 2.92 7.58C2.92 6.71 3.23 5.99 3.74 5.43C3.66 5.23 3.38 4.41 3.82 3.31C3.82 3.31 4.49 3.1 6.02 4.13C6.66 3.95 7.34 3.86 8.02 3.86C8.7 3.86 9.38 3.95 10.02 4.13C11.55 3.09 12.22 3.31 12.22 3.31C12.66 4.41 12.38 5.23 12.3 5.43C12.81 5.99 13.12 6.7 13.12 7.58C13.12 10.65 11.25 11.33 9.47 11.53C9.76 11.78 10.01 12.26 10.01 13.01C10.01 14.08 10 14.94 10 15.21C10 15.42 10.15 15.67 10.55 15.59C13.71 14.53 16 11.53 16 8C16 3.58 12.42 0 8 0Z"
            transform="scale(64)" fill="#ffff"></path>
    </symbol>

    <!-- JavaScript logo -->
    <symbol xmlns="http://www.w3.org/2000/svg" viewBox="0 0 1052 1052" id="javascript">
        <path fill="#f0db4f" d="M0 0h1052v1052H0z"></path>
        <path
            d="M965.9 801.1c-7.7-48-39-88.3-131.7-125.9-32.2-14.8-68.1-25.399-78.8-49.8-3.8-14.2-4.3-22.2-1.9-30.8 6.9-27.9 40.2-36.6 66.6-28.6 17 5.7 33.1 18.801 42.8 39.7 45.4-29.399 45.3-29.2 77-49.399-11.6-18-17.8-26.301-25.4-34-27.3-30.5-64.5-46.2-124-45-10.3 1.3-20.699 2.699-31 4-29.699 7.5-58 23.1-74.6 44-49.8 56.5-35.6 155.399 25 196.1 59.7 44.8 147.4 55 158.6 96.9 10.9 51.3-37.699 67.899-86 62-35.6-7.4-55.399-25.5-76.8-58.4-39.399 22.8-39.399 22.8-79.899 46.1 9.6 21 19.699 30.5 35.8 48.7 76.2 77.3 266.899 73.5 301.1-43.5 1.399-4.001 10.6-30.801 3.199-72.101zm-394-317.6h-98.4c0 85-.399 169.4-.399 254.4 0 54.1 2.8 103.7-6 118.9-14.4 29.899-51.7 26.2-68.7 20.399-17.3-8.5-26.1-20.6-36.3-37.699-2.8-4.9-4.9-8.7-5.601-9-26.699 16.3-53.3 32.699-80 49 13.301 27.3 32.9 51 58 66.399 37.5 22.5 87.9 29.4 140.601 17.3 34.3-10 63.899-30.699 79.399-62.199 22.4-41.3 17.6-91.3 17.4-146.6.5-90.2 0-180.4 0-270.9z"
            fill="#323330"></path>
    </symbol>

    <!-- LinkedIn logo -->
    <symbol xmlns="http://www.w3.org/2000/svg" preserveAspectRatio="xMidYMid" viewBox="0 0 256 256"
        id="linkedin">
        <path
            d="M218.123 218.127h-37.931v-59.403c0-14.165-.253-32.4-19.728-32.4-19.756 0-22.779 15.434-22.779 31.369v60.43h-37.93V95.967h36.413v16.694h.51a39.907 39.907 0 0 1 35.928-19.733c38.445 0 45.533 25.288 45.533 58.186l-.016 67.013ZM56.955 79.27c-12.157.002-22.014-9.852-22.016-22.009-.002-12.157 9.851-22.014 22.008-22.016 12.157-.003 22.014 9.851 22.016 22.008A22.013 22.013 0 0 1 56.955 79.27m18.966 138.858H37.95V95.967h37.97v122.16ZM237.033.018H18.89C8.58-.098.125 8.161-.001 18.471v219.053c.122 10.315 8.576 18.582 18.89 18.474h218.144c10.336.128 18.823-8.139 18.966-18.474V18.454c-.147-10.33-8.635-18.588-18.966-18.453"
            fill="#0A66C2"></path>
    </symbol>

    <!-- Midu.dev logo -->
    <symbol version="1.2" preserveAspectRatio="xMidYMid" xmlns="http://www.w3.org/2000/svg"
        viewBox="0 0 228 198" id="midudev">
        <g>
            <path fill="#199afc"
                d="M73.2 126.4c-15 15-15 39.3 0 54.3L19 126.4C4 111.5 4 87.2 19 72.2L73.2 18c15-15 39.2-15 54.2 0s15 39.2 0 54.2z"></path>
            <path fill="#1d5682"
                d="m73.2 126.4 27.1-27.1 27.1 27.1c15 15 15 39.3 0 54.3-15 14.9-39.2 14.9-54.2 0-15-15-15-39.3 0-54.3z"></path>
            <g>
                <path fill="#199afc"
                    d="M185.5 84.3c8.3-8.2 8.3-21.7 0-29.9l30 29.9c8.2 8.3 8.2 21.7 0 30l-30 30c-8.3 8.3-21.7 8.3-30 0s-8.3-21.7 0-30z"></path>
                <path fill="#1d5682"
                    d="m185.5 84.3-15 15-15-15c-8.3-8.2-8.3-21.7 0-29.9 8.3-8.3 21.7-8.3 30 0 8.3 8.2 8.3 21.7 0 29.9z"></path>
            </g>
        </g>
    </symbol>

    <!-- MongoDB logo -->
    <symbol xmlns="http://www.w3.org/2000/svg" preserveAspectRatio="xMidYMid" viewBox="0 0 256 549"
        id="mongodb">
        <path fill="#01EC64"
            d="M175.622 61.108C152.612 33.807 132.797 6.078 128.749.32a1.03 1.03 0 0 0-1.492 0c-4.048 5.759-23.863 33.487-46.874 60.788-197.507 251.896 31.108 421.89 31.108 421.89l1.917 1.28c1.704 26.234 5.966 63.988 5.966 63.988h17.045s4.26-37.54 5.965-63.987l1.918-1.494c.213.214 228.828-169.78 31.32-421.677Zm-47.726 418.05s-10.227-8.744-12.997-13.222v-.428l12.358-274.292c0-.853 1.279-.853 1.279 0l12.357 274.292v.428c-2.77 4.478-12.997 13.223-12.997 13.223Z"></path>
    </symbol>

    <!-- MySQL logo -->
    <symbol xmlns="http://www.w3.org/2000/svg" preserveAspectRatio="xMidYMid" viewBox="0 0 256 252"
        id="mysql">
        <path
            d="M236 194c-14 0-25 1-34 5-3 1-7 1-7 4l3 6c2 3 5 8 9 11l11 8 21 10 11 9 6 4-3-6-5-5c-5-7-11-13-18-18-6-3-18-9-20-15h-1l12-3 18-3 8-2v-2l-9-10c-8-8-18-15-28-22l-18-8c-2-1-6-2-7-4l-7-13-15-30-8-20c-18-30-38-48-68-65-6-4-14-5-22-7l-13-1-8-6C34 5 8-9 1 9c-5 11 7 22 11 28l9 13 3 9c3 8 5 17 9 24l6 10c2 2 4 3 5 6-3 4-3 9-4 13-7 20-4 44 5 59 2 4 9 14 18 10 8-3 6-13 8-22l1-4 8 14c5 9 14 18 22 24 4 3 8 8 13 10l-4-4-9-10c-8-10-14-21-20-32l-7-17-3-6c-3 4-7 7-9 12-3 7-3 17-4 26h-1c-6-1-8-7-10-12-5-12-6-32-1-46 1-4 6-15 4-19-1-3-4-5-6-7l-7-12-10-30-9-13c-3-5-7-8-10-14-1-2-2-5 0-7l2-2c2-2 9 0 11 1 6 3 12 5 17 9l8 6h4c6 1 12 0 17 2 9 3 18 7 25 12 23 14 42 35 54 59 3 4 3 8 5 12l12 26c4 8 7 16 12 23 3 4 14 6 18 8l12 4 18 12c2 2 11 7 12 10Z"
            fill="#00546B"></path>
        <path d="m58 43-7 1 6 7 4 9v-1c3-1 4-4 4-8l-2-4-5-4Z" fill="#00546B"></path>
    </symbol>

    <!-- NPM logo -->
    <symbol xmlns="http://www.w3.org/2000/svg" viewBox="0 0 128 128" id="npm">
        <path fill="#cb3837"
            d="M2 38.5h124v43.71H64v7.29H36.44v-7.29H2Zm6.89 36.43h13.78V53.07h6.89v21.86h6.89V45.79H8.89Zm34.44-29.14v36.42h13.78v-7.28h13.78V45.79Zm13.78 7.29H64v14.56h-6.89Zm20.67-7.29v29.14h13.78V53.07h6.89v21.86h6.89V53.07h6.89v21.86h6.89V45.79Z"></path>
    </symbol>

    <!-- PHP logo -->
    <symbol xmlns="http://www.w3.org/2000/svg" viewBox="0 -1 100 50" id="Php">
        <path
            d="M7.579 10.123h14.204c4.169.035 7.19 1.237 9.063 3.604 1.873 2.367 2.491 5.6 1.855 9.699-.247 1.873-.795 3.71-1.643 5.512a16.385 16.385 0 01-3.392 4.876c-1.767 1.837-3.657 3.003-5.671 3.498a26.11 26.11 0 01-6.254.742h-6.36l-2.014 10.07H0l7.579-38.001m6.201 6.042l-3.18 15.9c.212.035.424.053.636.053h.742c3.392.035 6.219-.3 8.48-1.007 2.261-.742 3.781-3.321 4.558-7.738.636-3.71 0-5.848-1.908-6.413-1.873-.565-4.222-.83-7.049-.795-.424.035-.83.053-1.219.053h-1.113l.053-.053M41.093 0h7.314L46.34 10.123h6.572c3.604.071 6.289.813 8.056 2.226 1.802 1.413 2.332 4.099 1.59 8.056l-3.551 17.649h-7.42L54.979 21.2c.353-1.767.247-3.021-.318-3.763s-1.784-1.113-3.657-1.113l-5.883-.053-4.346 21.783h-7.314L41.093 0M70.412 10.123h14.204c4.169.035 7.19 1.237 9.063 3.604 1.873 2.367 2.491 5.6 1.855 9.699-.247 1.873-.795 3.71-1.643 5.512a16.385 16.385 0 01-3.392 4.876c-1.767 1.837-3.657 3.003-5.671 3.498a26.11 26.11 0 01-6.254.742h-6.36L70.2 48.124h-7.367l7.579-38.001m6.201 6.042l-3.18 15.9c.212.035.424.053.636.053h.742c3.392.035 6.219-.3 8.48-1.007 2.261-.742 3.781-3.321 4.558-7.738.636-3.71 0-5.848-1.908-6.413-1.873-.565-4.222-.83-7.049-.795-.424.035-.83.053-1.219.053H76.56l.053-.053"></path>
    </symbol>

    <!-- Platzi logo -->
    <symbol xmlns="http://www.w3.org/2000/svg" viewBox="0 0 24 24" id="platzi">
        <path
            d="M10.64 1.13 2.49 9.28a3.84 3.84 0 0 0 0 5.44l8.15 8.15a3.84 3.84 0 0 0 5.44 0l2.72-2.71-2.72-2.72-2.72 2.72L5.2 12l8.16-8.16 5.44 5.44-5.44 5.44 2.72 2.72L21.5 12a3.84 3.84 0 0 0 0-5.44l-5.44-5.43a3.83 3.83 0 0 0-5.43 0z"
            fill="#98ca3f"></path>
    </symbol>

    <!-- React logo -->
    <symbol version="1.1" xmlns="http://www.w3.org/2000/svg"
        xmlns:xlink="http://www.w3.org/1999/xlink" viewBox="0 0 569 512" id="react">
        <g fill="none" fill-rule="evenodd">
            <g fill="#087EA4" fill-rule="nonzero">
                <path
                    d="M285.5,201 C255.400481,201 231,225.400481 231,255.5 C231,285.599519 255.400481,310 285.5,310 C315.599519,310 340,285.599519 340,255.5 C340,225.400481 315.599519,201 285.5,201"
                    id="react_light__Path"></path>
                <path
                    d="M568.959856,255.99437 C568.959856,213.207656 529.337802,175.68144 466.251623,150.985214 C467.094645,145.423543 467.85738,139.922107 468.399323,134.521063 C474.621631,73.0415145 459.808523,28.6686204 426.709856,9.5541429 C389.677085,-11.8291748 337.36955,3.69129898 284.479928,46.0162134 C231.590306,3.69129898 179.282771,-11.8291748 142.25,9.5541429 C109.151333,28.6686204 94.3382249,73.0415145 100.560533,134.521063 C101.102476,139.922107 101.845139,145.443621 102.708233,151.02537 C97.4493791,153.033193 92.2908847,155.161486 87.3331099,157.39017 C31.0111824,182.708821 0,217.765415 0,255.99437 C0,298.781084 39.6220545,336.307301 102.708233,361.003527 C101.845139,366.565197 101.102476,372.066633 100.560533,377.467678 C94.3382249,438.947226 109.151333,483.32012 142.25,502.434597 C153.629683,508.887578 166.52439,512.186771 179.603923,511.991836 C210.956328,511.991836 247.567589,495.487529 284.479928,465.972527 C321.372196,495.487529 358.003528,511.991836 389.396077,511.991836 C402.475265,512.183856 415.36922,508.884856 426.75,502.434597 C459.848667,483.32012 474.661775,438.947226 468.439467,377.467678 C467.897524,372.066633 467.134789,366.565197 466.291767,361.003527 C529.377946,336.347457 569,298.761006 569,255.99437 M389.155214,27.1025182 C397.565154,26.899606 405.877839,28.9368502 413.241569,33.0055186 C436.223966,46.2772304 446.540955,82.2775015 441.522965,131.770345 C441.181741,135.143488 440.780302,138.556788 440.298575,141.990165 C414.066922,134.08804 387.205771,128.452154 360.010724,125.144528 C343.525021,103.224055 325.192524,82.7564475 305.214266,63.9661533 C336.586743,39.7116483 366.032313,27.1025182 389.135142,27.1025182 M378.356498,310.205598 C368.204912,327.830733 357.150626,344.919965 345.237759,361.405091 C325.045049,363.479997 304.758818,364.51205 284.459856,364.497299 C264.167589,364.51136 243.888075,363.479308 223.702025,361.405091 C211.820914,344.919381 200.80007,327.83006 190.683646,310.205598 C180.532593,292.629285 171.306974,274.534187 163.044553,255.99437 C171.306974,237.454554 180.532593,219.359455 190.683646,201.783142 C200.784121,184.229367 211.770999,167.201087 223.601665,150.764353 C243.824636,148.63809 264.145559,147.579168 284.479928,147.591877 C304.772146,147.579725 325.051559,148.611772 345.237759,150.68404 C357.109048,167.14607 368.136094,184.201112 378.27621,201.783142 C388.419418,219.363718 397.644825,237.458403 405.915303,255.99437 C397.644825,274.530337 388.419418,292.625022 378.27621,310.205598 M419.724813,290.127366 C426.09516,307.503536 431.324985,325.277083 435.380944,343.334682 C417.779633,348.823635 399.836793,353.149774 381.668372,356.285142 C388.573127,345.871232 395.263781,335.035679 401.740334,323.778483 C408.143291,312.655143 414.144807,301.431411 419.805101,290.207679 M246.363271,390.377981 C258.848032,391.140954 271.593728,391.582675 284.5,391.582675 C297.406272,391.582675 310.232256,391.140954 322.737089,390.377981 C310.880643,404.583418 298.10766,417.997563 284.5,430.534446 C270.921643,417.999548 258.18192,404.585125 246.363271,390.377981 Z M187.311556,356.244986 C169.137286,353.123646 151.187726,348.810918 133.578912,343.334682 C137.618549,325.305649 142.828222,307.559058 149.174827,290.207679 C154.754833,301.431411 160.736278,312.655143 167.239594,323.778483 C173.74291,334.901824 180.467017,345.864539 187.311556,356.285142 M149.174827,221.760984 C142.850954,204.473938 137.654787,186.794745 133.619056,168.834762 C151.18418,163.352378 169.085653,159.013101 187.211197,155.844146 C180.346585,166.224592 173.622478,176.986525 167.139234,188.210257 C160.65599,199.433989 154.734761,210.517173 149.074467,221.760984 M322.616657,121.590681 C310.131896,120.827708 297.3862,120.385987 284.379568,120.385987 C271.479987,120.385987 258.767744,120.787552 246.242839,121.590681 C258.061488,107.383537 270.801211,93.9691137 284.379568,81.4342157 C297.99241,93.9658277 310.765727,107.380324 322.616657,121.590681 Z M401.70019,188.210257 C395.196875,176.939676 388.472767,166.09743 381.527868,155.68352 C399.744224,158.819049 417.734224,163.151949 435.380944,168.654058 C431.331963,186.680673 426.122466,204.426664 419.785029,221.781062 C414.205023,210.55733 408.203506,199.333598 401.720262,188.230335 M127.517179,131.790423 C122.438973,82.3176579 132.816178,46.2973086 155.778503,33.0255968 C163.144699,28.9632474 171.455651,26.9264282 179.864858,27.1225964 C202.967687,27.1225964 232.413257,39.7317265 263.785734,63.9862316 C243.794133,82.7898734 225.448298,103.270812 208.949132,125.204763 C181.761691,128.528025 154.90355,134.14313 128.661281,141.990165 C128.199626,138.556788 127.778115,135.163566 127.456963,131.790423 M98.4529773,182.106474 C101.54406,180.767925 104.695358,179.429376 107.906872,178.090828 C114.220532,204.735668 122.781793,230.7969 133.498624,255.99437 C122.761529,281.241316 114.193296,307.357063 107.8868,334.058539 C56.7434387,313.076786 27.0971497,284.003505 27.0971497,255.99437 C27.0971497,229.450947 53.1907013,202.526037 98.4529773,182.106474 Z M155.778503,478.963143 C132.816178,465.691432 122.438973,429.671082 127.517179,380.198317 C127.838331,376.825174 128.259842,373.431953 128.721497,369.978497 C154.953686,377.878517 181.814655,383.514365 209.009348,386.824134 C225.500295,408.752719 243.832321,429.233234 263.805806,448.042665 C220.069,481.834331 180.105722,492.97775 155.838719,478.963143 M441.502893,380.198317 C446.520883,429.691161 436.203894,465.691432 413.221497,478.963143 C388.974566,493.017906 348.991216,481.834331 305.274481,448.042665 C325.241364,429.232737 343.566681,408.752215 360.050868,386.824134 C387.245915,383.516508 414.107066,377.880622 440.338719,369.978497 C440.820446,373.431953 441.221885,376.825174 441.563109,380.198317 M461.193488,334.018382 C454.869166,307.332523 446.294494,281.231049 435.561592,255.99437 C446.289797,230.744081 454.857778,204.629101 461.173416,177.930202 C512.216417,198.911955 541.942994,227.985236 541.942994,255.99437 C541.942994,284.003505 512.296705,313.076786 461.153344,334.058539"
                    id="react_light__Shape"></path>
            </g>
        </g>
    </symbol>

    <!-- SVGL logo -->
    <symbol name="SVGL Logo" fill="none" xmlns="http://www.w3.org/2000/svg"
        xmlns:xlink="http://www.w3.org/1999/xlink" viewBox="0 0 512 512" id="svgl">
        <rect id="svgl__r4" width="512" height="512" x="0" y="0" rx="128" fill="#222"
            stroke="#FFFFFF" stroke-width="0" stroke-opacity="100%" paint-order="stroke"></rect>
        <rect width="512" height="512" x="0" y="0" fill="url(#svgl__r6)" rx="128"></rect>
        <clipPath id="svgl__clip">
            <use xlink:href="#svgl__r4"></use>
        </clipPath>
        <defs>
            <linearGradient id="svgl__r5" gradientUnits="userSpaceOnUse"
                gradientTransform="rotate(135)">
                <stop stop-color="#222"></stop>
                <stop offset="1" stop-color="#222222"></stop>
            </linearGradient>
            <radialGradient id="svgl__r6" cx="0" cy="0" r="1" gradientUnits="userSpaceOnUse"
                gradientTransform="translate(256) rotate(90) scale(512)">
                <stop stop-color="white"></stop>
                <stop offset="1" stop-color="white" stop-opacity="0"></stop>
            </radialGradient>
        </defs>
        <svg xmlns="http://www.w3.org/2000/svg" width="310" height="310" fill="#e8e8e8"
            viewBox="0 0 256 256" x="101" y="101" alignment-baseline="middle">
            <path
                d="M168,32H88A56.06,56.06,0,0,0,32,88v80a56.06,56.06,0,0,0,56,56h48a8.07,8.07,0,0,0,2.53-.41c26.23-8.75,76.31-58.83,85.06-85.06A8.07,8.07,0,0,0,224,136V88A56.06,56.06,0,0,0,168,32ZM48,168V88A40,40,0,0,1,88,48h80a40,40,0,0,1,40,40v40H184a56.06,56.06,0,0,0-56,56v24H88A40,40,0,0,1,48,168Zm96,35.14V184a40,40,0,0,1,40-40h19.14C191,163.5,163.5,191,144,203.14Z"></path>
        </svg>
    </symbol>

    <!-- Tailwind CSS logo -->
    <symbol xmlns="http://www.w3.org/2000/svg" fill="none" viewBox="0 0 54 33" id="tailwindcss">
        <g clip-path="url(#tailwindcss__a)">
            <path fill="#38bdf8" fill-rule="evenodd"
                d="M27 0c-7.2 0-11.7 3.6-13.5 10.8 2.7-3.6 5.85-4.95 9.45-4.05 2.054.513 3.522 2.004 5.147 3.653C30.744 13.09 33.808 16.2 40.5 16.2c7.2 0 11.7-3.6 13.5-10.8-2.7 3.6-5.85 4.95-9.45 4.05-2.054-.513-3.522-2.004-5.147-3.653C36.756 3.11 33.692 0 27 0zM13.5 16.2C6.3 16.2 1.8 19.8 0 27c2.7-3.6 5.85-4.95 9.45-4.05 2.054.514 3.522 2.004 5.147 3.653C17.244 29.29 20.308 32.4 27 32.4c7.2 0 11.7-3.6 13.5-10.8-2.7 3.6-5.85 4.95-9.45 4.05-2.054-.513-3.522-2.004-5.147-3.653C23.256 19.31 20.192 16.2 13.5 16.2z"
                clip-rule="evenodd"></path>
        </g>
        <defs>
            <clipPath id="tailwindcss__a">
                <path fill="#fff" d="M0 0h54v32.4H0z"></path>
            </clipPath>
        </defs>
    </symbol>

    <!-- TypeScript logo -->
    <symbol xmlns="http://www.w3.org/2000/svg" preserveAspectRatio="xMidYMid" viewBox="0 0 256 256"
        id="typescript">
        <path
            d="M20 0h216c11.046 0 20 8.954 20 20v216c0 11.046-8.954 20-20 20H20c-11.046 0-20-8.954-20-20V20C0 8.954 8.954 0 20 0Z"
            fill="#3178C6"></path>
        <path
            d="M150.518 200.475v27.62c4.492 2.302 9.805 4.028 15.938 5.179 6.133 1.151 12.597 1.726 19.393 1.726 6.622 0 12.914-.633 18.874-1.899 5.96-1.266 11.187-3.352 15.678-6.257 4.492-2.906 8.048-6.704 10.669-11.394 2.62-4.689 3.93-10.486 3.93-17.391 0-5.006-.749-9.394-2.246-13.163a30.748 30.748 0 0 0-6.479-10.055c-2.821-2.935-6.205-5.567-10.149-7.898-3.945-2.33-8.394-4.531-13.347-6.602-3.628-1.497-6.881-2.949-9.761-4.359-2.879-1.41-5.327-2.848-7.342-4.316-2.016-1.467-3.571-3.021-4.665-4.661-1.094-1.64-1.641-3.495-1.641-5.567 0-1.899.489-3.61 1.468-5.135s2.362-2.834 4.147-3.927c1.785-1.094 3.973-1.942 6.565-2.547 2.591-.604 5.471-.906 8.638-.906 2.304 0 4.737.173 7.299.518 2.563.345 5.14.877 7.732 1.597a53.669 53.669 0 0 1 7.558 2.719 41.7 41.7 0 0 1 6.781 3.797v-25.807c-4.204-1.611-8.797-2.805-13.778-3.582-4.981-.777-10.697-1.165-17.147-1.165-6.565 0-12.784.705-18.658 2.115-5.874 1.409-11.043 3.61-15.506 6.602-4.463 2.993-7.99 6.805-10.582 11.437-2.591 4.632-3.887 10.17-3.887 16.615 0 8.228 2.375 15.248 7.127 21.06 4.751 5.811 11.963 10.731 21.638 14.759a291.458 291.458 0 0 1 10.625 4.575c3.283 1.496 6.119 3.049 8.509 4.66 2.39 1.611 4.276 3.366 5.658 5.265 1.382 1.899 2.073 4.057 2.073 6.474a9.901 9.901 0 0 1-1.296 4.963c-.863 1.524-2.174 2.848-3.93 3.97-1.756 1.122-3.945 1.999-6.565 2.632-2.62.633-5.687.95-9.2.95-5.989 0-11.92-1.05-17.794-3.151-5.875-2.1-11.317-5.25-16.327-9.451Zm-46.036-68.733H140V109H41v22.742h35.345V233h28.137V131.742Z"
            fill="#FFF"></path>
    </symbol>

    <!-- Vercel logo -->
    <symbol xmlns="http://www.w3.org/2000/svg" preserveAspectRatio="xMidYMid" viewBox="0 0 256 222"
        id="vercel">
        <path fill="#000" d="m128 0 128 221.705H0z"></path>
    </symbol>

    <!-- Vite logo -->
    <symbol xmlns="http://www.w3.org/2000/svg" preserveAspectRatio="xMidYMid" viewBox="0 0 256 257"
        id="vitejs">
        <defs>
            <linearGradient x1="-.828%" y1="7.652%" x2="57.636%" y2="78.411%" id="vitejs__a">
                <stop stop-color="#41D1FF" offset="0%"></stop>
                <stop stop-color="#BD34FE" offset="100%"></stop>
            </linearGradient>
            <linearGradient x1="43.376%" y1="2.242%" x2="50.316%" y2="89.03%" id="vitejs__b">
                <stop stop-color="#FFEA83" offset="0%"></stop>
                <stop stop-color="#FFDD35" offset="8.333%"></stop>
                <stop stop-color="#FFA800" offset="100%"></stop>
            </linearGradient>
        </defs>
        <path
            d="M255.153 37.938 134.897 252.976c-2.483 4.44-8.862 4.466-11.382.048L.875 37.958c-2.746-4.814 1.371-10.646 6.827-9.67l120.385 21.517a6.537 6.537 0 0 0 2.322-.004l117.867-21.483c5.438-.991 9.574 4.796 6.877 9.62Z"
            fill="url(#vitejs__a)"></path>
        <path
            d="M185.432.063 96.44 17.501a3.268 3.268 0 0 0-2.634 3.014l-5.474 92.456a3.268 3.268 0 0 0 3.997 3.378l24.777-5.718c2.318-.535 4.413 1.507 3.936 3.838l-7.361 36.047c-.495 2.426 1.782 4.5 4.151 3.78l15.304-4.649c2.372-.72 4.652 1.36 4.15 3.788l-11.698 56.621c-.732 3.542 3.979 5.473 5.943 2.437l1.313-2.028 72.516-144.72c1.215-2.423-.88-5.186-3.54-4.672l-25.505 4.922c-2.396.462-4.435-1.77-3.759-4.114l16.646-57.705c.677-2.35-1.37-4.583-3.769-4.113Z"
            fill="url(#vitejs__b)"></path>
    </symbol>

    <!-- VSCode logo -->
    <symbol xmlns="http://www.w3.org/2000/svg" fill="none" viewBox="0 0 100 100" id="vscode">
        <mask id="vscode__a" width="100" height="100" x="0" y="0" maskType="alpha"
            maskUnits="userSpaceOnUse">
            <path fill="#fff" fill-rule="evenodd"
                d="M70.912 99.317a6.223 6.223 0 0 0 4.96-.19l20.589-9.907A6.25 6.25 0 0 0 100 83.587V16.413a6.25 6.25 0 0 0-3.54-5.632L75.874.874a6.226 6.226 0 0 0-7.104 1.21L29.355 38.04 12.187 25.01a4.162 4.162 0 0 0-5.318.236l-5.506 5.009a4.168 4.168 0 0 0-.004 6.162L16.247 50 1.36 63.583a4.168 4.168 0 0 0 .004 6.162l5.506 5.01a4.162 4.162 0 0 0 5.318.236l17.168-13.032L68.77 97.917a6.217 6.217 0 0 0 2.143 1.4ZM75.015 27.3 45.11 50l29.906 22.701V27.3Z"
                clip-rule="evenodd"></path>
        </mask>
        <g mask="url(#vscode__a)">
            <path fill="#0065A9"
                d="M96.461 10.796 75.857.876a6.23 6.23 0 0 0-7.107 1.207l-67.451 61.5a4.167 4.167 0 0 0 .004 6.162l5.51 5.009a4.167 4.167 0 0 0 5.32.236l81.228-61.62c2.725-2.067 6.639-.124 6.639 3.297v-.24a6.25 6.25 0 0 0-3.539-5.63Z"></path>
            <g filter="url(#vscode__b)">
                <path fill="#007ACC"
                    d="m96.461 89.204-20.604 9.92a6.229 6.229 0 0 1-7.107-1.207l-67.451-61.5a4.167 4.167 0 0 1 .004-6.162l5.51-5.009a4.167 4.167 0 0 1 5.32-.236l81.228 61.62c2.725 2.067 6.639.124 6.639-3.297v.24a6.25 6.25 0 0 1-3.539 5.63Z"></path>
            </g>
            <g filter="url(#vscode__c)">
                <path fill="#1F9CF0"
                    d="M75.858 99.126a6.232 6.232 0 0 1-7.108-1.21c2.306 2.307 6.25.674 6.25-2.588V4.672c0-3.262-3.944-4.895-6.25-2.589a6.232 6.232 0 0 1 7.108-1.21l20.6 9.908A6.25 6.25 0 0 1 100 16.413v67.174a6.25 6.25 0 0 1-3.541 5.633l-20.601 9.906Z"></path>
            </g>
            <path fill="url(#vscode__d)" fill-rule="evenodd"
                d="M70.851 99.317a6.224 6.224 0 0 0 4.96-.19L96.4 89.22a6.25 6.25 0 0 0 3.54-5.633V16.413a6.25 6.25 0 0 0-3.54-5.632L75.812.874a6.226 6.226 0 0 0-7.104 1.21L29.294 38.04 12.126 25.01a4.162 4.162 0 0 0-5.317.236l-5.507 5.009a4.168 4.168 0 0 0-.004 6.162L16.186 50 1.298 63.583a4.168 4.168 0 0 0 .004 6.162l5.507 5.009a4.162 4.162 0 0 0 5.317.236L29.294 61.96l39.414 35.958a6.218 6.218 0 0 0 2.143 1.4ZM74.954 27.3 45.048 50l29.906 22.701V27.3Z"
                clip-rule="evenodd" opacity=".25"></path>
        </g>
        <defs>
            <filter id="vscode__b" width="116.727" height="92.246" x="-8.394" y="15.829"
                color-interpolation-filters="sRGB" filterUnits="userSpaceOnUse">
                <feFlood flood-opacity="0" result="BackgroundImageFix"></feFlood>
                <feColorMatrix in="SourceAlpha" values="0 0 0 0 0 0 0 0 0 0 0 0 0 0 0 0 0 0 127 0"></feColorMatrix>
                <feOffset></feOffset>
                <feGaussianBlur stdDeviation="4.167"></feGaussianBlur>
                <feColorMatrix values="0 0 0 0 0 0 0 0 0 0 0 0 0 0 0 0 0 0 0.25 0"></feColorMatrix>
                <feBlend in2="BackgroundImageFix" mode="overlay" result="effect1_dropShadow"></feBlend>
                <feBlend in="SourceGraphic" in2="effect1_dropShadow" result="shape"></feBlend>
            </filter>
            <filter id="vscode__c" width="47.917" height="116.151" x="60.417" y="-8.076"
                color-interpolation-filters="sRGB" filterUnits="userSpaceOnUse">
                <feFlood flood-opacity="0" result="BackgroundImageFix"></feFlood>
                <feColorMatrix in="SourceAlpha" values="0 0 0 0 0 0 0 0 0 0 0 0 0 0 0 0 0 0 127 0"></feColorMatrix>
                <feOffset></feOffset>
                <feGaussianBlur stdDeviation="4.167"></feGaussianBlur>
                <feColorMatrix values="0 0 0 0 0 0 0 0 0 0 0 0 0 0 0 0 0 0 0.25 0"></feColorMatrix>
                <feBlend in2="BackgroundImageFix" mode="overlay" result="effect1_dropShadow"></feBlend>
                <feBlend in="SourceGraphic" in2="effect1_dropShadow" result="shape"></feBlend>
            </filter>
            <linearGradient id="vscode__d" x1="49.939" x2="49.939" y1=".258" y2="99.742"
                gradientUnits="userSpaceOnUse">
                <stop stop-color="#fff"></stop>
                <stop offset="1" stop-color="#fff" stop-opacity="0"></stop>
            </linearGradient>
        </defs>
    </symbol>
</svg>